{"title":"RoboCop 2014 720p BluRay x264  [Hindi 5.1] {[BHAI]} [HKRG]","uid":10315455,"size":1233320006,"categoryP":"video","categoryS":"hd___movies","magnet":"?xt=urn:btih:427edf5e89d6f3fb3b9d06e8cb8afcdf1ffd2b9e&amp;dn=RoboCop+2014+720p+BluRay+x264++%5BHindi+5.1%5D+%7B%5BBHAI%5D%7D+%5BHKRG%5D&amp;tr=udp%3A%2F%2Ftracker.openbittorrent.com%3A80&amp;tr=udp%3A%2F%2Fopen.demonii.com%3A1337&amp;tr=udp%3A%2F%2Ftracker.coppersurfer.tk%3A6969&amp;tr=udp%3A%2F%2Fexodus.desync.com%3A6969","seeders":1,"leechers":1,"uploader":"OnlyByTheRain","files":22,"time":1402236810,"description":" &lt;a href=&quot;http://i.imgur.com/ogwa3bN.jpg&quot; rel=&quot;nofollow&quot; target=&quot;_NEW&quot;&gt;http://i.imgur.com/ogwa3bN.jpg&lt;/a&gt;\n\nGeneral\n\nComplete name : RoboCop 2014 720p BluRay x264 [Hindi 5.1] {[BHAI]} [HKRG].mkv\nFormat : Matroska\nFormat version : Version 2\nFile size : 1.13 GiB\nDuration : 1h 57mn\nOverall bit rate : 1 383 Kbps\nMovie name : {[BHAI]} HKRG\nEncoded date : UTC 2014-06-08 10:02:05\nWriting library : libebml v1.2.3 + libmatroska v1.3.0\n\nVideo\nID : 1\nFormat : AVC\nFormat/Info : Advanced Video Codec\nFormat profile : &lt;a class=&quot;__cf_email__&quot; href=&quot;/cdn-cgi/l/email-protection&quot; data-cfemail=&quot;1951707e7159552d3728&quot;&gt;[email&amp;#160;protected]&lt;/a&gt;&lt;script cf-hash='f9e31' type=&quot;text/javascript&quot;&gt;\n/* &lt;![CDATA[ */!function(){try{var t=&quot;currentScript&quot;in document?document.currentScript:function(){for(var t=document.getElementsByTagName(&quot;script&quot;),e=t.length;e--;)if(t[e].getAttribute(&quot;cf-hash&quot;))return t[e]}();if(t&amp;&amp;t.previousSibling){var e,r,n,i,c=t.previousSibling,a=c.getAttribute(&quot;data-cfemail&quot;);if(a){for(e=&quot;&quot;,r=parseInt(a.substr(0,2),16),n=2;a.length-n;n+=2)i=parseInt(a.substr(n,2),16)^r,e+=String.fromCharCode(i);e=document.createTextNode(e),c.parentNode.replaceChild(e,c)}}}catch(u){}}();/* ]]&gt; */&lt;/script&gt;\nFormat settings, CABAC : Yes\nFormat settings, ReFrames : 4 frames\nMuxing mode : Header stripping\nCodec ID : V_MPEG4/ISO/AVC\nDuration : 1h 57mn\nBit rate : 934 Kbps\nWidth : 1 280 pixels\nHeight : 536 pixels\nDisplay aspect ratio : 2.40:1\nFrame rate mode : Constant\nFrame rate : 23.976 fps\nColor space : YUV\nChroma subsampling : 4:2:0\nBit depth : 8 bits\nScan type : Progressive\nBits/(Pixel*Frame) : 0.057\nStream size : 763 MiB (66%)\nWriting library : x264 core 142 r2409 d6b4e63\nDefault : Yes\nForced : No\nColor primaries : BT.709\nMatrix coefficients : BT.709\n\nAudio\nID : 2\nFormat : AC-3\nFormat/Info : Audio Coding 3\nMode extension : CM (complete main)\nFormat settings, Endianness : Big\nMuxing mode : Header stripping\nCodec ID : A_AC3\nDuration : 1h 57mn\nBit rate mode : Constant\nBit rate : 448 Kbps\nChannel(s) : 6 channels\nChannel positions : Front: L C R, Side: L R, LFE\nSampling rate : 48.0 KHz\nBit depth : 16 bits\nCompression mode : Lossy\nStream size : 376 MiB (32%)\nTitle : {[BHAI]} [HKRG]\nLanguage : Hindi\nDefault : No\nForced : No\n &lt;a href=&quot;\nhttp://i.imgur.com/U7Bbb7N.png&quot; rel=&quot;nofollow&quot; target=&quot;_NEW&quot;&gt;\nhttp://i.imgur.com/U7Bbb7N.png&lt;/a&gt; &lt;a href=&quot;\nhttp://i.imgur.com/vBOS7sB.png&quot; rel=&quot;nofollow&quot; target=&quot;_NEW&quot;&gt;\nhttp://i.imgur.com/vBOS7sB.png&lt;/a&gt; &lt;a href=&quot;\nhttp://i.imgur.com/vdmEnHF.png&quot; rel=&quot;nofollow&quot; target=&quot;_NEW&quot;&gt;\nhttp://i.imgur.com/vdmEnHF.png&lt;/a&gt; &lt;a href=&quot;\nhttp://i.imgur.com/ifjNEdw.png&quot; rel=&quot;nofollow&quot; target=&quot;_NEW&quot;&gt;\nhttp://i.imgur.com/ifjNEdw.png&lt;/a&gt; &lt;a href=&quot;\nhttp://i.imgur.com/fHm0vpB.png&quot; rel=&quot;nofollow&quot; target=&quot;_NEW&quot;&gt;\nhttp://i.imgur.com/fHm0vpB.png&lt;/a&gt;","torrent":{"xt":"urn:btih:427edf5e89d6f3fb3b9d06e8cb8afcdf1ffd2b9e","amp;dn":"RoboCop+2014+720p+BluRay+x264++%5BHindi+5.1%5D+%7B%5BBHAI%5D%7D+%5BHKRG%5D","amp;tr":["udp%3A%2F%2Ftracker.openbittorrent.com%3A80","udp%3A%2F%2Fopen.demonii.com%3A1337","udp%3A%2F%2Ftracker.coppersurfer.tk%3A6969","udp%3A%2F%2Fexodus.desync.com%3A6969"],"infoHash":"427edf5e89d6f3fb3b9d06e8cb8afcdf1ffd2b9e","infoHashBuffer":{"type":"Buffer","data":[66,126,223,94,137,214,243,251,59,157,6,232,203,138,252,223,31,253,43,158]},"announce":[],"urlList":[]}}